<?xml version="1.0" encoding="UTF-8" standalone="no"?>
<svg
   xmlns:dc="http://purl.org/dc/elements/1.1/"
   xmlns:cc="http://creativecommons.org/ns#"
   xmlns:rdf="http://www.w3.org/1999/02/22-rdf-syntax-ns#"
   xmlns:svg="http://www.w3.org/2000/svg"
   xmlns="http://www.w3.org/2000/svg"
   xmlns:sodipodi="http://sodipodi.sourceforge.net/DTD/sodipodi-0.dtd"
   xmlns:inkscape="http://www.inkscape.org/namespaces/inkscape"
   width="2085.9583"
   height="1850.6274"
   viewBox="0 0 551.90977 489.64518"
   version="1.1"
   id="svg1966"
   inkscape:version="1.0.2 (e86c870879, 2021-01-15, custom)"
   sodipodi:docname="iso-laptop-phone.svg">
  <defs
     id="defs1960">
    <rect
       x="-45.827179"
       y="79.375"
       width="22.913589"
       height="13.229167"
       id="rect2667" />
    <filter
       inkscape:collect="always"
       style="color-interpolation-filters:sRGB"
       id="filter1956"
       x="-0.010697235"
       width="1.0213945"
       y="-0.016972097"
       height="1.0339442">
      <feGaussianBlur
         inkscape:collect="always"
         stdDeviation="2.5192033"
         id="feGaussianBlur1958" />
    </filter>
    <filter
       inkscape:collect="always"
       style="color-interpolation-filters:sRGB"
       id="filter1367"
       x="-0.014164338"
       width="1.0283287"
       y="-0.021807427"
       height="1.0436149">
      <feGaussianBlur
         inkscape:collect="always"
         stdDeviation="1.0818527"
         id="feGaussianBlur1369" />
    </filter>
    <filter
       inkscape:collect="always"
       style="color-interpolation-filters:sRGB"
       id="filter2224"
       x="-0.0081561832"
       width="1.0163124"
       y="-0.013080486"
       height="1.026161">
      <feGaussianBlur
         inkscape:collect="always"
         stdDeviation="0.97337208"
         id="feGaussianBlur2226" />
    </filter>
  </defs>
  <sodipodi:namedview
     id="base"
     pagecolor="#ffffff"
     bordercolor="#666666"
     borderopacity="1.0"
     inkscape:pageopacity="0.0"
     inkscape:pageshadow="2"
     inkscape:zoom="0.24977777"
     inkscape:cx="1610.5631"
     inkscape:cy="1223.0957"
     inkscape:document-units="px"
     inkscape:current-layer="layer1"
     inkscape:document-rotation="0"
     showgrid="true"
     units="px"
     showborder="false"
     inkscape:window-width="1920"
     inkscape:window-height="1017"
     inkscape:window-x="1912"
     inkscape:window-y="-8"
     inkscape:window-maximized="1"
     fit-margin-top="0"
     fit-margin-left="0"
     fit-margin-right="0"
     fit-margin-bottom="0"
     inkscape:snap-grids="true"
     inkscape:snap-to-guides="true"
     inkscape:snap-global="false">
    <inkscape:grid
       type="axonomgrid"
       id="grid2529"
       spacingy="13.229167"
       units="px"
       originx="365.61551"
       originy="72.760421" />
  </sodipodi:namedview>
  <metadata
     id="metadata1963">
    <rdf:RDF>
      <cc:Work
         rdf:about="">
        <dc:format>image/svg+xml</dc:format>
        <dc:type
           rdf:resource="http://purl.org/dc/dcmitype/StillImage" />
        <dc:title></dc:title>
      </cc:Work>
    </rdf:RDF>
  </metadata>
  <g
     inkscape:label="Layer 1"
     inkscape:groupmode="layer"
     id="layer1"
     transform="translate(365.61554,72.760418)">
    <text
       xml:space="preserve"
       id="text2665"
       style="font-style:normal;font-weight:normal;font-size:4.23333px;line-height:0.4;font-family:sans-serif;letter-spacing:0px;word-spacing:0px;white-space:pre;shape-inside:url(#rect2667);fill:#000000;fill-opacity:1;stroke:none;" />
    <g
       id="g2880">
      <g
         id="g1393"
         transform="matrix(0.29492805,0,0,0.29492805,-290.62234,168.12239)">
        <g
           id="g1490"
           style="opacity:0.486928;fill:#000000;filter:url(#filter1956)"
           transform="translate(0,9.4887124)">
          <path
             id="path1486"
             style="fill:#000000;fill-opacity:1;stroke:none;stroke-width:0.999999px;stroke-linecap:butt;stroke-linejoin:miter;stroke-opacity:1"
             d="M 519.67188,-473.20508 A 173.20473,173.20473 0 0 0 433.01172,-450 L -909.32422,324.99805 V 225 l -28.86719,50 V 374.75977 375 a 57.73491,57.73491 0 0 0 28.86524,50 l 562.91601,324.99805 a 173.20473,173.20473 0 0 0 173.20508,0 L 1169.1328,-25 A 57.734914,57.734914 0 0 0 1198,-74.998047 57.734914,57.734914 0 0 0 1198,-75 v -100 l -28.8672,50 -562.916,-325 a 173.20473,173.20473 0 0 0 -86.54492,-23.20508 z"
             transform="scale(0.26458333)" />
          <path
             style="fill:#000000;stroke:none;stroke-width:0.264583px;stroke-linecap:butt;stroke-linejoin:miter;stroke-opacity:1"
             d="M -91.654205,171.97891 -240.59233,85.989445 a 15.275695,15.275695 90 0 1 0,-26.45828 L 114.56778,-145.52062 a 45.827084,45.827084 4.3430415e-7 0 1 45.82708,0 l 148.93812,85.989466 a 15.275696,15.275696 90 0 1 0,26.45828 L -45.82712,171.97891 a 45.827085,45.827085 -180 0 1 -45.827085,0 z"
             id="path1488" />
        </g>
        <path
           id="path5529"
           style="fill:#5d536c;fill-opacity:1;stroke:none;stroke-width:0.264583px;stroke-linecap:butt;stroke-linejoin:miter;stroke-opacity:1"
           d="m 137.49652,-125.20218 a 45.827084,45.827084 0 0 0 -22.92884,6.13968 L -240.59203,85.989066 V 59.531249 l -7.63778,13.229167 v 26.394772 0.06356 a 15.275695,15.275695 0 0 0 7.63726,13.229172 l 148.938196,85.98906 a 45.827084,45.827084 0 0 0 45.827177,0 L 309.33305,-6.6145832 a 15.275696,15.275696 0 0 0 7.63778,-13.2286498 15.275696,15.275696 0 0 0 0,-5.17e-4 v -26.458333 l -7.63778,13.229167 -148.93819,-85.989584 a 45.827084,45.827084 0 0 0 -22.89834,-6.13968 z" />
        <path
           style="fill:#beb7c8;stroke:none;stroke-width:0.264583px;stroke-linecap:butt;stroke-linejoin:miter;stroke-opacity:1"
           d="M -91.654205,171.97891 -240.59233,85.989445 a 15.275695,15.275695 0 0 1 0,-26.45828 L 114.56778,-145.52062 a 45.827084,45.827084 0 0 1 45.82708,0 l 148.93812,85.989466 a 15.275696,15.275696 0 0 1 0,26.45828 L -45.82712,171.97891 a 45.827085,45.827085 0 0 1 -45.827085,0 z"
           id="path5521" />
        <path
           style="fill:#5d536c;fill-opacity:1;stroke:none;stroke-width:0.264583px;stroke-linecap:butt;stroke-linejoin:miter;stroke-opacity:1"
           d="m -166.13955,101.78492 45.85968,26.47711 a 3.8080667,3.8080667 0 0 1 0,6.59576 l -0.0326,0.0188 a 11.424206,11.424206 0 0 1 -11.4242,0 l -45.85968,-26.47711 a 3.8080672,3.8080672 0 0 1 0,-6.59576 l 0.0326,-0.0188 a 11.424204,11.424204 0 0 1 11.4242,0 z"
           id="path5515" />
        <path
           style="fill:#5d536c;fill-opacity:1;stroke:none;stroke-width:0.264583px;stroke-linecap:butt;stroke-linejoin:miter;stroke-opacity:1"
           d="m 200.55063,-109.8391 45.71306,26.392455 a 3.856941,3.856941 0 0 1 0,6.680418 11.45697,11.45697 0 0 1 -11.45678,-0.06585 l -45.71306,-26.392453 a 3.856941,3.856941 0 0 1 0,-6.68042 11.45697,11.45697 0 0 1 11.45678,0.0658 z"
           id="path5519" />
        <path
           style="fill:#2d2834;fill-opacity:1;stroke:none;stroke-width:0.264583px;stroke-linecap:butt;stroke-linejoin:miter;stroke-opacity:1"
           d="M -217.67876,58.799601 -45.827108,158.0182 286.41943,-33.804425 114.56777,-133.02303 Z"
           id="path5517"
           sodipodi:nodetypes="ccccc" />
        <path
           id="path5606"
           style="fill:#0055d4;stroke:none;stroke-width:0.173646px;stroke-linecap:butt;stroke-linejoin:miter;stroke-opacity:1"
           d="m -13.1739,-179.32529 a 14.504691,14.504691 0 0 0 -10.279412,4.23535 l -15.451496,8.66639 -4.261133,10.26924 15.450836,-8.66606 v 27.89471 a 43.514074,43.514074 0 0 0 21.7570398,37.684375 l 68.3034932,39.435425 23.434171,29.901818 -1.067319,0.598607 -0.335086,25.9937503 15.450818,-8.6663933 v 0 l 0.335418,-25.99341 8.26518,4.771891 a 14.504692,14.504692 0 0 0 3.25891,1.382729 l -4.20516,7.283663 15.1544,-8.499529 a 14.504692,14.504692 0 0 0 0.27438,-0.153976 l 0.0227,-0.01289 v -3.47e-4 a 14.504692,14.504692 0 0 0 7.25145,-12.560554 14.504692,14.504692 0 0 0 0,-3.47e-4 v -3.47e-4 0 -27.895046 A 43.514076,43.514076 0 0 0 108.42828,-111.34061 L -5.9587424,-177.3823 a 14.504691,14.504691 0 0 0 -7.2158346,-1.943 z" />
        <path
           id="path911"
           style="fill:#0099ff;fill-opacity:1;stroke:none;stroke-width:0.656302px;stroke-linecap:butt;stroke-linejoin:miter;stroke-opacity:1"
           d="m -28.62507,-170.6586 a 14.504675,14.504675 0 0 0 -14.541034,14.50428 v 27.89482 a 43.51409,43.51409 0 0 0 21.757078,37.684879 l 68.30335,39.435237 37.482738,47.8277026 0.33537,-25.9937716 8.265472,4.772236 a 14.504675,14.504675 0 0 0 21.757076,-12.56156 V -64.989988 A 43.51409,43.51409 0 0 0 92.977904,-102.67421 l -114.38693,-66.04173 a 14.504675,14.504675 0 0 0 -7.216044,-1.94266 z" />
        <path
           style="fill:#ffffff;stroke:none;stroke-width:0.173646px;stroke-linecap:butt;stroke-linejoin:miter;stroke-opacity:1"
           d="m -28.128151,-133.57775 v 0.1067 a 37.503142,37.503142 0 0 0 18.7515682,32.47867 l 0.092407,0.0534 A 12.501045,12.501045 0 0 0 9.4673919,-111.7652 v -0.1067 a 37.503142,37.503142 0 0 0 -18.7515677,-32.47867 l -0.092407,-0.0534 a 12.501045,12.501045 0 0 0 -18.7515682,10.82622 z"
           id="path5600" />
        <path
           style="fill:#ffffff;stroke:none;stroke-width:0.173646px;stroke-linecap:butt;stroke-linejoin:miter;stroke-opacity:1"
           d="M 16.98651,-107.16813 A 37.596821,37.596821 0 0 0 36.052151,-74.764088 12.535663,12.535663 0 0 0 54.582053,-86.080952 37.596821,37.596821 0 0 0 35.516405,-118.48499 12.535664,12.535664 0 0 0 16.98651,-107.16813 Z"
           id="path5602" />
        <path
           style="fill:#ffffff;stroke:none;stroke-width:0.173646px;stroke-linecap:butt;stroke-linejoin:miter;stroke-opacity:1"
           d="m 62.101164,-81.452892 v 0.04483 a 37.556734,37.556734 0 0 0 18.778364,32.525082 l 0.03879,0.02238 A 12.518907,12.518907 0 0 0 99.69668,-59.702292 v -0.04483 A 37.556726,37.556726 0 0 0 80.918316,-92.272199 l -0.03879,-0.02238 a 12.51891,12.51891 0 0 0 -18.778364,10.841694 z"
           id="path5604" />
        <path
           id="path1458"
           style="fill:#d45500;stroke:none;stroke-width:0.173646px;stroke-linecap:butt;stroke-linejoin:miter;stroke-opacity:1"
           d="m -103.88703,-120.80068 a 14.504691,14.504691 0 0 0 -10.27941,4.23534 l -15.4515,8.6664 -4.26113,10.269227 15.45084,-8.666057 v 27.89471 a 43.514074,43.514074 0 0 0 21.757034,37.684376 l 68.303498,39.4354252 23.434171,29.9018178 -1.067319,0.598607 -0.335086,25.99375 15.450818,-8.666393 v 0 l 0.335416,-25.99341 8.265181,4.771891 a 14.504692,14.504692 0 0 0 3.258914,1.382729 l -4.205166,7.283663 15.154404,-8.499529 a 14.504692,14.504692 0 0 0 0.274379,-0.153976 l 0.02273,-0.01289 v -3.47e-4 a 14.504692,14.504692 0 0 0 7.251449,-12.560548 14.504692,14.504692 0 0 0 0,-3.48e-4 v -3.47e-4 0 -27.895046 A 43.514076,43.514076 0 0 0 17.715153,-52.816009 L -96.671866,-118.8577 a 14.504691,14.504691 0 0 0 -7.215844,-1.943 z" />
        <path
           id="path1460"
           style="fill:#f89437;fill-opacity:1;stroke:none;stroke-width:0.656302px;stroke-linecap:butt;stroke-linejoin:miter;stroke-opacity:1"
           d="m -119.3382,-112.13399 a 14.504675,14.504675 0 0 0 -14.54103,14.504277 v 27.894814 a 43.51409,43.51409 0 0 0 21.75707,37.684879 L -43.818802,7.3852171 -6.336064,55.21292 -6.000694,29.219148 2.264778,33.991384 A 14.504675,14.504675 0 0 0 24.021856,21.429824 V -6.4653868 A 43.51409,43.51409 0 0 0 2.264778,-44.149609 L -112.12216,-110.19134 a 14.504675,14.504675 0 0 0 -7.21604,-1.94265 z" />
        <path
           style="fill:#ffffff;stroke:none;stroke-width:0.173646px;stroke-linecap:butt;stroke-linejoin:miter;stroke-opacity:1"
           d="m -118.84128,-75.053146 v 0.106702 a 37.503142,37.503142 0 0 0 18.75157,32.478668 l 0.0924,0.05336 a 12.501045,12.501045 0 0 0 18.75157,-10.826219 v -0.106701 a 37.503142,37.503142 0 0 0 -18.75157,-32.478676 l -0.0924,-0.05336 a 12.501045,12.501045 0 0 0 -18.75157,10.826226 z"
           id="path1462" />
        <path
           style="fill:#ffffff;stroke:none;stroke-width:0.173646px;stroke-linecap:butt;stroke-linejoin:miter;stroke-opacity:1"
           d="m -73.726616,-48.643528 a 37.596821,37.596821 0 0 0 19.065641,32.404041 12.535663,12.535663 0 0 0 18.529902,-11.316864 37.596821,37.596821 0 0 0 -19.065648,-32.40404 12.535664,12.535664 0 0 0 -18.529895,11.316863 z"
           id="path1464" />
        <path
           style="fill:#ffffff;stroke:none;stroke-width:0.173646px;stroke-linecap:butt;stroke-linejoin:miter;stroke-opacity:1"
           d="m -28.611962,-22.928291 v 0.04483 A 37.556734,37.556734 0 0 0 -9.833598,9.6416212 l 0.03879,0.02238 A 12.518907,12.518907 0 0 0 8.983554,-1.1776908 v -0.04482 A 37.556726,37.556726 0 0 0 -9.79481,-33.747593 l -0.03879,-0.02238 a 12.51891,12.51891 0 0 0 -18.778364,10.841694 z"
           id="path1466" />
      </g>
      <g
         id="g2775">
        <path
           style="fill:#beb7c8;fill-opacity:1;stroke:none;stroke-width:0.264583px;stroke-linecap:butt;stroke-linejoin:miter;stroke-opacity:1"
           d="M -114.56794,132.29167 171.85192,297.65625 V 99.218751 L -114.56794,-66.145835 Z"
           id="path2531" />
        <path
           style="fill:#2d2834;fill-opacity:1;stroke:none;stroke-width:0.264583px;stroke-linecap:butt;stroke-linejoin:miter;stroke-opacity:1"
           d="M -103.11114,-46.302077 V 125.67709 L 160.39513,277.81251 V 105.83334 Z"
           id="path2533" />
        <path
           style="opacity:0.480392;fill:#000000;fill-opacity:1;stroke:none;stroke-width:0.264583px;stroke-linecap:butt;stroke-linejoin:miter;stroke-opacity:1;filter:url(#filter2224)"
           d="m -285.84296,235.50785 v 13.22917 L 0.57691059,414.10159 v -13.22916 z"
           id="path978" />
        <path
           style="opacity:0.480392;fill:#000000;fill-opacity:0.815686;stroke:none;stroke-width:0.264583px;stroke-linecap:butt;stroke-linejoin:miter;stroke-opacity:1;filter:url(#filter1367)"
           d="M 0.38912454,401.05914 V 414.2883 L 183.69783,308.45497 V 295.2258 Z"
           id="path980" />
        <path
           style="fill:#beb7c8;fill-opacity:1;stroke:none;stroke-width:0.264583px;stroke-linecap:butt;stroke-linejoin:miter;stroke-opacity:1"
           d="M -114.56794,132.29167 -286.41987,231.51042 0,396.875 171.85192,297.65625 Z"
           id="path2535" />
        <path
           style="fill:#7f7394;fill-opacity:1;stroke:none;stroke-width:0.264583px;stroke-linecap:butt;stroke-linejoin:miter;stroke-opacity:1"
           d="m -114.56794,-66.145835 11.45679,-6.614583 286.41986,165.364586 -11.45679,6.614583 z"
           id="path2539" />
        <path
           style="fill:#5d536c;fill-opacity:1;stroke:none;stroke-width:0.264583px;stroke-linecap:butt;stroke-linejoin:miter;stroke-opacity:1"
           d="m 171.85192,99.218751 11.45679,-6.614583 V 304.27083 l -11.45679,6.61458 z"
           id="path2541" />
        <path
           style="fill:#5d536c;fill-opacity:1;stroke:none;stroke-width:0.264583px;stroke-linecap:butt;stroke-linejoin:miter;stroke-opacity:1"
           d="m 0,396.875 v 13.22916 L 183.30871,304.27083 v -13.22917 z"
           id="path2545" />
        <path
           style="fill:#2d2834;fill-opacity:1;stroke:none;stroke-width:0.264583px;stroke-linecap:butt;stroke-linejoin:miter;stroke-opacity:1"
           d="M -114.56794,145.52083 148.93833,297.65625 57.283974,350.57291 -206.2223,198.4375 Z"
           id="path2547" />
        <path
           style="fill:#5d536c;fill-opacity:1;stroke:none;stroke-width:0.264583px;stroke-linecap:butt;stroke-linejoin:miter;stroke-opacity:1"
           d="m -114.56794,264.58333 57.283966,33.07292 -45.827176,26.45833 -57.28397,-33.07292 z"
           id="path2549" />
        <g
           aria-label=" &gt;hello()     &gt;Hello World!!!"
           transform="matrix(0.9397474,0.5430962,-0.02757261,1.0481811,-0.42327382,4.7158107)"
           id="text2553"
           style="font-style:normal;font-weight:normal;font-size:31.5298px;line-height:0.4;font-family:sans-serif;letter-spacing:0px;word-spacing:0px;fill:#000000;fill-opacity:1;stroke:none;stroke-width:1.97062">
          <path
             d="M -90.12598,102.21087 V 99.4089 l 19.736916,7.15887 v 2.55563 l -19.736916,7.15887 v -2.80196 l 15.857272,-5.61933 z"
             style="fill:#1a202c;fill-opacity:1;stroke-width:1.97062"
             id="path1021" />
          <path
             d="m -49.743818,107.32214 v 10.4073 h -2.832756 v -10.31493 q 0,-2.44787 -0.954515,-3.6641 -0.954516,-1.21624 -2.863547,-1.21624 -2.293916,0 -3.617921,1.46256 -1.324005,1.46257 -1.324005,3.98741 v 9.7453 h -2.848151 V 93.77418 h 2.848151 v 9.3912 q 1.016097,-1.55494 2.386288,-2.32471 1.385587,-0.76977 3.18685,-0.76977 2.971314,0 4.49546,1.84745 1.524146,1.83206 1.524146,5.40379 z"
             style="fill:#f9b934;fill-opacity:1;stroke:none"
             id="path1023" />
          <path
             d="m -29.3449,108.39982 v 1.38559 h -13.024518 q 0.184745,2.92513 1.755077,4.46467 1.585728,1.52414 4.403088,1.52414 1.631913,0 3.156059,-0.40028 1.539541,-0.40028 3.048291,-1.20084 v 2.6788 q -1.524146,0.64661 -3.125268,0.98531 -1.601123,0.3387 -3.248432,0.3387 -4.12597,0 -6.543049,-2.40169 -2.401684,-2.40168 -2.401684,-6.49686 0,-4.23374 2.27852,-6.7124 2.293917,-2.49406 6.17356,-2.49406 3.479363,0 5.496161,2.24773 2.032195,2.23234 2.032195,6.08119 z m -2.832756,-0.83135 q -0.03079,-2.32471 -1.30861,-3.7103 -1.262423,-1.38558 -3.356199,-1.38558 -2.370893,0 -3.802667,1.3394 -1.416377,1.3394 -1.631913,3.77187 z"
             style="fill:#f9b934;fill-opacity:1;stroke:none"
             id="path1025" />
          <path
             d="m -24.695487,93.77418 h 2.832755 v 23.95526 h -2.832755 z"
             style="fill:#f9b934;fill-opacity:1;stroke:none"
             id="path1027" />
          <path
             d="m -15.9355,93.77418 h 2.832755 v 23.95526 H -15.9355 Z"
             style="fill:#f9b934;fill-opacity:1;stroke:none"
             id="path1029" />
          <path
             d="m -0.4939054,102.47259 q -2.2785207,0 -3.602526,1.78586 -1.3240053,1.77048 -1.3240053,4.86495 0,3.09448 1.3086099,4.88035 1.3240053,1.77047 3.6179214,1.77047 2.2631253,0 3.5871306,-1.78587 1.3240053,-1.78586 1.3240053,-4.86495 0,-3.06368 -1.3240053,-4.84955 -1.3240053,-1.80126 -3.5871306,-1.80126 z m 0,-2.40169 q 3.6948985,0 5.8040697,2.40169 2.1091712,2.40168 2.1091712,6.65081 0,4.23374 -2.1091712,6.65082 -2.1091712,2.40169 -5.8040697,2.40169 -3.7102939,0 -5.8194651,-2.40169 -2.0937758,-2.41708 -2.0937758,-6.65082 0,-4.24913 2.0937758,-6.65081 2.1091712,-2.40169 5.8194651,-2.40169 z"
             style="fill:#f9b934;fill-opacity:1;stroke:none"
             id="path1031" />
          <path
             d="m 18.919709,93.804971 q -2.062985,3.540944 -3.063687,7.004909 -1.000701,3.46397 -1.000701,7.02031 0,3.55634 1.000701,7.0511 1.016097,3.47936 3.063687,7.00491 h -2.463266 q -2.309311,-3.61792 -3.463967,-7.11268 -1.13926,-3.49476 -1.13926,-6.94333 0,-3.43318 1.13926,-6.91254 1.13926,-3.479362 3.463967,-7.112679 z"
             style="fill:#f9b934;fill-opacity:1;stroke:none"
             id="path1033" />
          <path
             d="m 23.969404,93.804971 h 2.463266 q 2.309312,3.633317 3.448572,7.112679 1.154656,3.47936 1.154656,6.91254 0,3.44857 -1.154656,6.94333 -1.13926,3.49476 -3.448572,7.11268 h -2.463266 q 2.04759,-3.52555 3.048292,-7.00491 1.016097,-3.49476 1.016097,-7.0511 0,-3.55634 -1.016097,-7.02031 -1.000702,-3.463965 -3.048292,-7.004909 z"
             style="fill:#f9b934;fill-opacity:1;stroke:none"
             id="path1035" />
          <path
             d="m -90.12598,140.04663 v -2.80197 l 19.736916,7.15887 v 2.55564 l -19.736916,7.15886 v -2.80196 l 15.857272,-5.61933 z"
             style="fill:#1a202c;fill-opacity:1;stroke-width:1.97062"
             id="path1037" />
          <path
             d="m -63.953782,132.57985 h 3.109873 v 9.42199 h 11.300231 v -9.42199 h 3.109873 v 22.98535 h -3.109873 v -10.94614 h -11.300231 v 10.94614 h -3.109873 z"
             style="fill:#0099ff;fill-opacity:1;stroke-width:1.97062"
             id="path1039" />
          <path
             d="m -25.619211,146.23558 v 1.38559 h -13.024518 q 0.184745,2.92513 1.755077,4.46467 1.585727,1.52414 4.403088,1.52414 1.631913,0 3.156059,-0.40028 1.539541,-0.40028 3.048291,-1.20084 v 2.6788 q -1.524146,0.64661 -3.125268,0.98531 -1.601123,0.3387 -3.248432,0.3387 -4.12597,0 -6.543049,-2.40169 -2.401684,-2.40168 -2.401684,-6.49686 0,-4.23374 2.27852,-6.7124 2.293916,-2.49406 6.17356,-2.49406 3.479363,0 5.496161,2.24773 2.032195,2.23234 2.032195,6.08119 z m -2.832756,-0.83135 q -0.03079,-2.32471 -1.30861,-3.71029 -1.262423,-1.38559 -3.356199,-1.38559 -2.370893,0 -3.802667,1.3394 -1.416377,1.3394 -1.631913,3.77187 z"
             style="fill:#0099ff;fill-opacity:1;stroke-width:1.97062"
             id="path1041" />
          <path
             d="m -20.969795,131.60994 h 2.832756 v 23.95526 h -2.832756 z"
             style="fill:#0099ff;fill-opacity:1;stroke-width:1.97062"
             id="path1043" />
          <path
             d="m -12.209808,131.60994 h 2.8327559 v 23.95526 h -2.8327559 z"
             style="fill:#0099ff;fill-opacity:1;stroke-width:1.97062"
             id="path1045" />
          <path
             d="m 3.2317873,140.30835 q -2.27852069,0 -3.60252598,1.78587 -1.32400532,1.77047 -1.32400532,4.86495 0,3.09447 1.30860991,4.88034 1.32400529,1.77047 3.61792139,1.77047 2.2631254,0 3.5871307,-1.78586 1.3240053,-1.78587 1.3240053,-4.86495 0,-3.06369 -1.3240053,-4.84956 -1.3240053,-1.80126 -3.5871307,-1.80126 z m 0,-2.40169 q 3.6948985,0 5.8040698,2.40169 2.1091709,2.40168 2.1091709,6.65082 0,4.23373 -2.1091709,6.65081 -2.1091713,2.40169 -5.8040698,2.40169 -3.71029385,0 -5.8194651,-2.40169 -2.0937758,-2.41708 -2.0937758,-6.65081 0,-4.24914 2.0937758,-6.65082 2.10917125,-2.40169 5.8194651,-2.40169 z"
             style="fill:#0099ff;fill-opacity:1;stroke-width:1.97062"
             id="path1047" />
          <path
             d="m 23.938612,132.57985 h 3.140663 l 4.834159,19.42901 4.818764,-19.42901 h 3.494758 l 4.834159,19.42901 4.818763,-19.42901 h 3.156059 L 47.262658,155.5652 H 43.352224 L 38.50267,135.61275 33.606929,155.5652 h -3.910434 z"
             style="fill:#0099ff;fill-opacity:1;stroke-width:1.97062"
             id="path1049" />
          <path
             d="m 61.872908,140.30835 q -2.27852,0 -3.602526,1.78587 -1.324005,1.77047 -1.324005,4.86495 0,3.09447 1.30861,4.88034 1.324005,1.77047 3.617921,1.77047 2.263126,0 3.587131,-1.78586 1.324005,-1.78587 1.324005,-4.86495 0,-3.06369 -1.324005,-4.84956 -1.324005,-1.80126 -3.587131,-1.80126 z m 0,-2.40169 q 3.694899,0 5.80407,2.40169 2.109171,2.40168 2.109171,6.65082 0,4.23373 -2.109171,6.65081 -2.109171,2.40169 -5.80407,2.40169 -3.710294,0 -5.819465,-2.40169 -2.093776,-2.41708 -2.093776,-6.65081 0,-4.24914 2.093776,-6.65082 2.109171,-2.40169 5.819465,-2.40169 z"
             style="fill:#0099ff;fill-opacity:1;stroke-width:1.97062"
             id="path1051" />
          <path
             d="m 84.473373,140.97035 q -0.477258,-0.27712 -1.046888,-0.40028 -0.554235,-0.13856 -1.231633,-0.13856 -2.401684,0 -3.694899,1.57033 -1.277819,1.55494 -1.277819,4.48007 v 9.08329 h -2.848151 v -17.24286 h 2.848151 v 2.6788 q 0.892934,-1.57033 2.324707,-2.32471 1.431773,-0.76977 3.479363,-0.76977 0.292513,0 0.646607,0.0462 0.354095,0.0308 0.785166,0.10777 z"
             style="fill:#0099ff;fill-opacity:1;stroke-width:1.97062"
             id="path1053" />
          <path
             d="m 87.444688,131.60994 h 2.832755 v 23.95526 h -2.832755 z"
             style="fill:#0099ff;fill-opacity:1;stroke-width:1.97062"
             id="path1055" />
          <path
             d="m 107.55108,140.93956 v -9.32962 h 2.83276 v 23.95526 h -2.83276 v -2.58643 q -0.89293,1.53954 -2.26312,2.29392 -1.3548,0.73898 -3.26383,0.73898 -3.125266,0 -5.095879,-2.49406 -1.955217,-2.49406 -1.955217,-6.55844 0,-4.06439 1.955217,-6.55845 1.970613,-2.49406 5.095879,-2.49406 1.90903,0 3.26383,0.75438 1.37019,0.73898 2.26312,2.27852 z m -9.652918,6.01961 q 0,3.12526 1.277819,4.91113 1.293219,1.77047 3.540949,1.77047 2.24773,0 3.54094,-1.77047 1.29321,-1.78587 1.29321,-4.91113 0,-3.12527 -1.29321,-4.89575 -1.29321,-1.78586 -3.54094,-1.78586 -2.24773,0 -3.540949,1.78586 -1.277819,1.77048 -1.277819,4.89575 z"
             style="fill:#0099ff;fill-opacity:1;stroke-width:1.97062"
             id="path1057" />
          <path
             d="m 118.00457,151.65477 h 3.12527 v 3.91043 h -3.12527 z m 0,-19.07492 h 3.12527 v 10.084 l -0.30791,5.49616 h -2.49405 l -0.32331,-5.49616 z"
             style="fill:#0099ff;fill-opacity:1;stroke-width:1.97062"
             id="path1059" />
          <path
             d="m 130.64421,151.65477 h 3.12526 v 3.91043 h -3.12526 z m 0,-19.07492 h 3.12526 v 10.084 l -0.3079,5.49616 h -2.49406 l -0.3233,-5.49616 z"
             style="fill:#0099ff;fill-opacity:1;stroke-width:1.97062"
             id="path1061" />
          <path
             d="m 143.28384,151.65477 h 3.12527 v 3.91043 h -3.12527 z m 0,-19.07492 h 3.12527 v 10.084 l -0.30791,5.49616 h -2.49406 l -0.3233,-5.49616 z"
             style="fill:#0099ff;fill-opacity:1;stroke-width:1.97062"
             id="path1063" />
        </g>
        <path
           style="fill:#eeeeef;fill-opacity:1;stroke:none;stroke-width:0.264583px;stroke-linecap:butt;stroke-linejoin:miter;stroke-opacity:1"
           d="M -34.370383,-6.6145835 V 72.760418 L 160.39512,185.20834 v -79.37501 z"
           id="path968" />
        <path
           style="fill:#333333;stroke:none;stroke-width:0.264583px;stroke-linecap:butt;stroke-linejoin:miter;stroke-opacity:1"
           d="M -103.11115,19.84375 34.370383,99.218751 V 33.072916 L -103.11115,-46.302083 Z"
           id="path901" />
        <g
           aria-label="const hello = () =&gt; {  console.log('Hello World!!!'); }"
           transform="matrix(1.0898227,0.6216301,-0.02424585,0.90375071,0,0)"
           id="text2559"
           style="font-style:normal;font-variant:normal;font-weight:normal;font-stretch:normal;font-size:11.867px;line-height:0;font-family:'Agency FB';-inkscape-font-specification:'Agency FB, Normal';font-variant-ligatures:normal;font-variant-caps:normal;font-variant-numeric:normal;font-variant-east-asian:normal;letter-spacing:0px;word-spacing:0px;fill:#000000;fill-opacity:1;stroke:none;stroke-width:0.278131">
          <path
             d="m -78.776804,41.801452 q 0,0.654771 -0.648977,0.654771 h -1.831041 q -0.648976,0 -0.648976,-0.654771 V 37.47301 q 0,-0.654771 0.648976,-0.654771 h 1.831041 q 0.648977,0 0.648977,0.654771 v 1.12412 h -0.759071 v -1.100942 h -1.599264 v 4.282086 h 1.599264 v -1.257392 h 0.759071 z"
             style="fill:#0099ff;fill-opacity:1;stroke-width:0.278131"
             id="path1066" />
          <path
             d="m -74.286118,41.801452 q 0,0.654771 -0.654771,0.654771 h -1.935341 q -0.648977,0 -0.648977,-0.654771 V 37.47301 q 0,-0.654771 0.648977,-0.654771 h 1.935341 q 0.654771,0 0.654771,0.654771 z m -0.77066,-0.02318 v -4.282086 h -1.697769 v 4.282086 z"
             style="fill:#0099ff;fill-opacity:1;stroke-width:0.278131"
             id="path1068" />
          <path
             d="m -69.789638,42.456223 h -0.770659 v -4.948447 l -1.697769,0.04636 v 4.902091 h -0.77066 v -5.637984 h 0.77066 v 0.15645 q 0.451965,-0.05794 0.909726,-0.121684 0.556265,-0.06953 0.91552,-0.06953 0.643182,0 0.643182,0.631593 z"
             style="fill:#0099ff;fill-opacity:1;stroke-width:0.278131"
             id="path1070" />
          <path
             d="m -65.507552,41.801452 q 0,0.654771 -0.654771,0.654771 h -1.767302 q -0.654771,0 -0.654771,-0.654771 v -1.28057 h 0.759071 v 1.268981 h 1.558702 v -1.12412 l -2.016463,-1.651414 q -0.289721,-0.231777 -0.289721,-0.602621 V 37.47301 q 0,-0.654771 0.654771,-0.654771 h 1.744124 q 0.654771,0 0.654771,0.654771 v 1.12412 h -0.747482 v -1.112531 h -1.558702 v 0.985053 l 2.033846,1.651414 q 0.283927,0.225983 0.283927,0.61421 z"
             style="fill:#0099ff;fill-opacity:1;stroke-width:0.278131"
             id="path1072" />
          <path
             d="m -62.256874,42.456223 h -1.095148 q -0.648977,0 -0.648977,-0.654771 v -4.305264 h -0.677948 v -0.677949 h 0.677948 v -1.755713 h 0.759071 v 1.755713 h 0.985054 v 0.677949 h -0.985054 v 4.282086 h 0.985054 z"
             style="fill:#0099ff;fill-opacity:1;stroke-width:0.278131"
             id="path1074" />
          <path
             d="m -55.709164,42.456223 h -0.77066 v -4.948447 l -1.697769,0.04636 v 4.902091 h -0.770659 v -9.068289 h 0.770659 v 3.586755 q 0.457761,-0.05794 0.915521,-0.115889 0.579443,-0.07533 0.909726,-0.07533 0.643182,0 0.643182,0.631593 z"
             style="fill:#f9b934;fill-opacity:1;stroke:none;stroke-width:0.278131"
             id="path1076" />
          <path
             d="m -51.31119,41.801452 q 0,0.654771 -0.648977,0.654771 h -1.854219 q -0.648976,0 -0.648976,-0.654771 V 37.47301 q 0,-0.654771 0.648976,-0.654771 h 1.854219 q 0.648977,0 0.648977,0.654771 v 2.028051 l -0.26075,0.272339 h -2.14394 v 2.03964 h 1.657208 v -1.031409 h 0.747482 z m -0.747482,-2.642262 v -1.697769 h -1.657208 v 1.697769 z"
             style="fill:#f9b934;fill-opacity:1;stroke:none;stroke-width:0.278131"
             id="path1078" />
          <path
             d="m -49.230987,42.456223 h -0.759071 v -9.068289 h 0.759071 z"
             style="fill:#f9b934;fill-opacity:1;stroke:none;stroke-width:0.278131"
             id="path1080" />
          <path
             d="m -47.11602,42.456223 h -0.759071 v -9.068289 h 0.759071 z"
             style="fill:#f9b934;fill-opacity:1;stroke:none;stroke-width:0.278131"
             id="path1082" />
          <path
             d="m -42.567391,41.801452 q 0,0.654771 -0.654771,0.654771 h -1.93534 q -0.648977,0 -0.648977,-0.654771 V 37.47301 q 0,-0.654771 0.648977,-0.654771 h 1.93534 q 0.654771,0 0.654771,0.654771 z m -0.770659,-0.02318 v -4.282086 h -1.697769 v 4.282086 z"
             style="fill:#f9b934;fill-opacity:1;stroke:none;stroke-width:0.278131"
             id="path1084" />
          <path
             d="m -34.976682,38.075631 h -4.050309 v -0.701127 h 4.050309 z m 0,2.114968 h -4.050309 v -0.689538 h 4.050309 z"
             style="fill:#ffffff;stroke-width:0.278131"
             id="path1086" />
          <path
             d="m -29.321313,43.620904 h -0.701127 q -1.437019,-2.335157 -1.437019,-5.116485 0,-2.781328 1.437019,-5.116485 h 0.701127 v 0.06374 q -0.706921,1.28057 -1.014026,2.433662 -0.3129,1.182064 -0.3129,2.619084 0,1.437019 0.3129,2.619084 0.307105,1.153092 1.014026,2.433662 z"
             style="fill:#ffffff;stroke-width:0.278131"
             id="path1088" />
          <path
             d="m -26.424097,38.504419 q 0,2.781328 -1.437019,5.116485 h -0.683743 v -0.06374 q 0.70692,-1.28057 1.008231,-2.433662 0.318694,-1.182065 0.318694,-2.619084 0,-1.43702 -0.318694,-2.619084 -0.301311,-1.153092 -1.008231,-2.433662 v -0.06374 h 0.683743 q 1.437019,2.335157 1.437019,5.116485 z"
             style="fill:#ffffff;stroke-width:0.278131"
             id="path1090" />
          <path
             d="m -18.850774,38.075631 h -4.050309 v -0.701127 h 4.050309 z m 0,2.114968 h -4.050309 v -0.689538 h 4.050309 z"
             style="fill:#ffffff;stroke-width:0.278131"
             id="path1092" />
          <path
             d="m -14.649811,38.875263 -2.943572,2.178707 v -0.805427 l 2.14394,-1.587674 -2.14394,-1.59347 v -0.805426 h 0.04636 l 2.897216,2.19609 z"
             style="fill:#ffffff;stroke-width:0.278131"
             id="path1094" />
          <path
             d="M -8.3570506,43.893242 H -9.365282 q -0.5157046,0 -0.851782,-0.336077 -0.336077,-0.336077 -0.336077,-0.851782 v -3.262266 l -0.973465,-0.903931 v -0.168039 l 0.973465,-0.898137 v -2.897217 q 0,-0.515704 0.336077,-0.851782 0.3360774,-0.336077 0.851782,-0.336077 h 1.0082314 v 0.701127 q -0.075328,0 -0.2723384,-0.0058 -0.1912163,-0.01159 -0.2955161,-0.01159 -0.8170151,0 -0.8170151,0.602621 v 2.688618 q 0,0.359254 -0.2839268,0.637387 -0.295517,0.225983 -0.585238,0.45776 0.289721,0.225983 0.585238,0.457761 0.2839268,0.278133 0.2839268,0.631593 v 3.065255 q 0,0.596827 0.8170151,0.596827 0.1042998,0 0.2955161,-0.01159 0.1970108,-0.0058 0.2723384,-0.0058 z"
             style="fill:#ffffff;stroke-width:0.278131"
             id="path1096" />
          <path
             d="m -74.898223,54.855151 q 0,0.654771 -0.648977,0.654771 h -1.831041 q -0.648976,0 -0.648976,-0.654771 V 50.52671 q 0,-0.654771 0.648976,-0.654771 h 1.831041 q 0.648977,0 0.648977,0.654771 v 1.12412 h -0.759071 v -1.100943 h -1.599264 v 4.282087 h 1.599264 v -1.257392 h 0.759071 z"
             style="fill:#f9b934;fill-opacity:1;stroke:none;stroke-width:0.278131"
             id="path1098" />
          <path
             d="m -70.407538,54.855151 q 0,0.654771 -0.654771,0.654771 h -1.93534 q -0.648977,0 -0.648977,-0.654771 V 50.52671 q 0,-0.654771 0.648977,-0.654771 h 1.93534 q 0.654771,0 0.654771,0.654771 z m -0.770659,-0.02318 v -4.282087 h -1.697769 v 4.282087 z"
             style="fill:#f9b934;fill-opacity:1;stroke:none;stroke-width:0.278131"
             id="path1100" />
          <path
             d="m -65.911057,55.509922 h -0.770659 v -4.948446 l -1.697769,0.04636 v 4.90209 h -0.77066 v -5.637983 h 0.77066 v 0.156449 q 0.451965,-0.05794 0.909726,-0.121683 0.556265,-0.06953 0.91552,-0.06953 0.643182,0 0.643182,0.631593 z"
             style="fill:#f9b934;fill-opacity:1;stroke:none;stroke-width:0.278131"
             id="path1102" />
          <path
             d="m -61.62897,54.855151 q 0,0.654771 -0.654771,0.654771 h -1.767302 q -0.654771,0 -0.654771,-0.654771 v -1.280569 h 0.759071 v 1.268981 h 1.558702 v -1.124121 l -2.016463,-1.651413 q -0.289721,-0.231777 -0.289721,-0.602621 V 50.52671 q 0,-0.654771 0.654771,-0.654771 h 1.744124 q 0.654771,0 0.654771,0.654771 v 1.12412 h -0.747482 v -1.112531 h -1.558702 v 0.985053 l 2.033846,1.651414 q 0.283927,0.225983 0.283927,0.61421 z"
             style="fill:#f9b934;fill-opacity:1;stroke:none;stroke-width:0.278131"
             id="path1104" />
          <path
             d="m -57.167256,54.855151 q 0,0.654771 -0.654771,0.654771 h -1.93534 q -0.648977,0 -0.648977,-0.654771 V 50.52671 q 0,-0.654771 0.648977,-0.654771 h 1.93534 q 0.654771,0 0.654771,0.654771 z m -0.770659,-0.02318 v -4.282087 h -1.697769 v 4.282087 z"
             style="fill:#f9b934;fill-opacity:1;stroke:none;stroke-width:0.278131"
             id="path1106" />
          <path
             d="m -55.104439,55.509922 h -0.75907 v -9.068288 h 0.75907 z"
             style="fill:#f9b934;fill-opacity:1;stroke:none;stroke-width:0.278131"
             id="path1108" />
          <path
             d="m -50.642724,54.855151 q 0,0.654771 -0.648976,0.654771 h -1.854219 q -0.648977,0 -0.648977,-0.654771 V 50.52671 q 0,-0.654771 0.648977,-0.654771 h 1.854219 q 0.648976,0 0.648976,0.654771 v 2.028051 l -0.260749,0.272339 h -2.143941 v 2.03964 h 1.657208 v -1.031409 h 0.747482 z m -0.747482,-2.642261 v -1.697769 h -1.657208 v 1.697769 z"
             style="fill:#f9b934;fill-opacity:1;stroke:none;stroke-width:0.278131"
             id="path1110" />
          <path
             d="m -48.574112,55.509922 h -0.880753 v -1.01982 h 0.880753 z"
             style="fill:#ffffff;stroke-width:0.278131"
             id="path1112" />
          <path
             d="m -46.592415,55.509922 h -0.75907 v -9.068288 h 0.75907 z"
             style="fill:#0099ff;fill-opacity:1;stroke-width:0.278131"
             id="path1114" />
          <path
             d="m -42.043785,54.855151 q 0,0.654771 -0.654771,0.654771 h -1.935341 q -0.648977,0 -0.648977,-0.654771 V 50.52671 q 0,-0.654771 0.648977,-0.654771 h 1.935341 q 0.654771,0 0.654771,0.654771 z m -0.77066,-0.02318 v -4.282087 h -1.697769 v 4.282087 z"
             style="fill:#0099ff;fill-opacity:1;stroke-width:0.278131"
             id="path1116" />
          <path
             d="m -37.582073,56.993297 q 0,0.654771 -0.654771,0.654771 h -1.831041 q -0.66636,0 -0.66636,-0.828604 0,-0.09851 0.0058,-0.295516 0.01159,-0.191216 0.01159,-0.278133 h 0.75907 v 0.747482 h 1.610853 v -1.483375 h -1.268981 q -0.515705,0 -0.857576,-0.341871 -0.341872,-0.347666 -0.341872,-0.869165 v -3.297033 q 0,-0.498321 0.301311,-0.828604 0.30131,-0.336077 0.793837,-0.336077 0.133272,0 1.373281,0.191216 v -0.156449 h 0.764865 z m -0.764865,-2.161323 v -4.258909 q -0.915521,-0.05794 -1.066176,-0.05794 -0.637388,0 -0.637388,0.648976 v 3.0189 q 0,0.648977 0.637388,0.648977 z"
             style="fill:#0099ff;fill-opacity:1;stroke-width:0.278131"
             id="path1118" />
          <path
             d="m -34.203916,56.674604 h -0.701127 q -1.437019,-2.335157 -1.437019,-5.116485 0,-2.781328 1.437019,-5.116485 h 0.701127 v 0.06374 q -0.706921,1.28057 -1.014026,2.433662 -0.312899,1.182064 -0.312899,2.619084 0,1.437019 0.312899,2.619084 0.307105,1.153092 1.014026,2.433662 z"
             style="fill:#0099ff;fill-opacity:1;stroke-width:0.278131"
             id="path1120" />
          <path
             d="m -32.407642,46.441634 -0.179627,2.850861 h -0.498322 l -0.179627,-2.850861 z"
             style="fill:#ffff00;stroke-width:0.278131"
             id="path1122" />
          <path
             d="m -27.331718,55.509922 h -0.805426 v -4.357414 h -2.184501 v 4.357414 h -0.805426 v -9.068288 h 0.805426 v 3.98657 h 2.184501 v -3.98657 h 0.805426 z"
             style="fill:#ffff00;stroke-width:0.278131"
             id="path1124" />
          <path
             d="m -22.823649,54.855151 q 0,0.654771 -0.648977,0.654771 h -1.854218 q -0.648977,0 -0.648977,-0.654771 V 50.52671 q 0,-0.654771 0.648977,-0.654771 h 1.854218 q 0.648977,0 0.648977,0.654771 v 2.028051 l -0.26075,0.272339 h -2.14394 v 2.03964 h 1.657208 v -1.031409 h 0.747482 z m -0.747482,-2.642261 v -1.697769 h -1.657208 v 1.697769 z"
             style="fill:#ffff00;stroke-width:0.278131"
             id="path1126" />
          <path
             d="m -20.743446,55.509922 h -0.759071 v -9.068288 h 0.759071 z"
             style="fill:#ffff00;stroke-width:0.278131"
             id="path1128" />
          <path
             d="m -18.628479,55.509922 h -0.759071 v -9.068288 h 0.759071 z"
             style="fill:#ffff00;stroke-width:0.278131"
             id="path1130" />
          <path
             d="m -14.079849,54.855151 q 0,0.654771 -0.654771,0.654771 h -1.935341 q -0.648977,0 -0.648977,-0.654771 V 50.52671 q 0,-0.654771 0.648977,-0.654771 h 1.935341 q 0.654771,0 0.654771,0.654771 z m -0.77066,-0.02318 v -4.282087 h -1.697769 v 4.282087 z"
             style="fill:#ffff00;stroke-width:0.278131"
             id="path1132" />
          <path
             d="M -4.9825917,46.441634 -6.216806,55.5331 h -0.654771 l -0.9850537,-6.837431 q -0.00579,-0.179628 -0.023178,-0.533088 0,0.185422 -0.023178,0.533088 L -8.8880398,55.5331 h -0.654771 l -1.2342142,-9.091466 h 0.7996317 l 0.7706597,6.541915 q 0.00579,0.220189 0.023178,0.648977 -0.00579,-0.220188 0.023178,-0.648977 L -8.22168,46.441634 h 0.6895376 l 0.9329038,6.541915 q 0.011589,0.220189 0.023178,0.648977 0,-0.220188 0.028972,-0.648977 l 0.7706596,-6.541915 z"
             style="fill:#ffff00;stroke-width:0.278131"
             id="path1134" />
          <path
             d="m -0.75844598,54.855151 q 0,0.654771 -0.65477102,0.654771 h -1.9353407 q -0.6489766,0 -0.6489766,-0.654771 V 50.52671 q 0,-0.654771 0.6489766,-0.654771 h 1.9353407 q 0.65477102,0 0.65477102,0.654771 z m -0.77065962,-0.02318 v -4.282087 h -1.697769 v 4.282087 z"
             style="fill:#ffff00;stroke-width:0.278131"
             id="path1136" />
          <path
             d="M 3.4483152,51.726157 H 2.6892444 v -1.164681 l -1.4196362,0.04636 v 4.90209 H 0.49894859 V 49.871939 H 1.2696082 v 0.156449 q 0.3824326,-0.05794 0.7706597,-0.121683 0.4635546,-0.06953 0.7706596,-0.06953 0.6373877,0 0.6373877,0.631593 z"
             style="fill:#ffff00;stroke-width:0.278131"
             id="path1138" />
          <path
             d="M 5.2329942,55.509922 H 4.4739234 v -9.068288 h 0.7590708 z"
             style="fill:#ffff00;stroke-width:0.278131"
             id="path1140" />
          <path
             d="M 9.7468646,55.509922 H 8.9819994 v -0.156449 q -1.2400087,0.191216 -1.3732807,0.191216 -0.4925268,0 -0.7938374,-0.330283 -0.3013105,-0.336077 -0.3013105,-0.834398 v -3.297033 q 0,-0.521499 0.3418716,-0.86337 0.3418715,-0.347666 0.8575761,-0.347666 H 8.9819994 V 46.441634 H 9.7468646 Z M 8.9819994,54.808796 V 50.549887 H 7.9158237 q -0.6373877,0 -0.6373877,0.654771 v 3.013106 q 0,0.648976 0.6373877,0.648976 0.1506552,0 1.0661757,-0.05794 z"
             style="fill:#ffff00;stroke-width:0.278131"
             id="path1142" />
          <path
             d="m 12.012483,46.441634 -0.179628,7.028648 H 11.299767 L 11.12014,46.441634 Z m -0.01159,9.068288 h -0.869165 v -1.01982 h 0.869165 z"
             style="fill:#ffff00;stroke-width:0.278131"
             id="path1144" />
          <path
             d="m 14.376611,46.441634 -0.179628,7.028648 h -0.533088 l -0.179627,-7.028648 z m -0.01159,9.068288 h -0.869165 v -1.01982 h 0.869165 z"
             style="fill:#ffff00;stroke-width:0.278131"
             id="path1146" />
          <path
             d="m 16.740739,46.441634 -0.179628,7.028648 h -0.533087 l -0.179628,-7.028648 z m -0.01159,9.068288 h -0.869165 v -1.01982 h 0.869165 z"
             style="fill:#ffff00;stroke-width:0.278131"
             id="path1148" />
          <path
             d="m 18.890481,46.441634 -0.179628,2.850861 h -0.498321 l -0.179628,-2.850861 z"
             style="fill:#ffff00;stroke-width:0.278131"
             id="path1150" />
          <path
             d="m 21.961523,51.558119 q 0,2.781328 -1.437019,5.116485 h -0.683743 v -0.06374 q 0.706921,-1.28057 1.008231,-2.433662 0.318694,-1.182065 0.318694,-2.619084 0,-1.43702 -0.318694,-2.619084 -0.30131,-1.153092 -1.008231,-2.433662 v -0.06374 h 0.683743 q 1.437019,2.335157 1.437019,5.116485 z"
             style="fill:#0099ff;fill-opacity:1;stroke-width:0.278131"
             id="path1152" />
          <path
             d="m 23.995369,51.592885 h -0.880754 v -1.01982 h 0.880754 z m 0.03477,2.897217 -0.521499,1.663003 h -0.556266 l 0.162244,-1.663003 z"
             style="fill:#ffffff;stroke-width:0.278131"
             id="path1154" />
          <path
             d="m -78.857926,64.646585 -0.973465,0.903932 v 3.262266 q 0,0.50991 -0.341872,0.845987 -0.336077,0.341872 -0.845987,0.341872 h -1.008232 v -0.701127 q 0.07533,0 0.266544,0.0058 0.197011,0.01159 0.301311,0.01159 0.822809,0 0.822809,-0.596827 v -3.065255 q 0,-0.353461 0.283928,-0.631594 0.289721,-0.231777 0.579443,-0.45776 -0.289722,-0.231777 -0.579443,-0.45776 -0.283928,-0.278133 -0.283928,-0.637388 v -2.688617 q 0,-0.602621 -0.822809,-0.602621 -0.1043,0 -0.301311,0.01159 -0.191216,0.0058 -0.266544,0.0058 v -0.701126 h 1.008232 q 0.50991,0 0.845987,0.341872 0.341872,0.336077 0.341872,0.845987 v 2.897217 l 0.973465,0.898137 z"
             style="line-height:1.1;fill:#ffffff;stroke-width:0.278131"
             id="path1156" />
        </g>
        <path
           style="fill:#6f6380;fill-opacity:1;stroke:none;stroke-width:0.264583px;stroke-linecap:butt;stroke-linejoin:miter;stroke-opacity:1"
           d="m -286.41987,231.51042 v 13.22917 L 0,410.10416 V 396.875 Z"
           id="path2543" />
      </g>
    </g>
  </g>
</svg>
